<svg id="Layer_1" data-name="Layer 1" xmlns="http://www.w3.org/2000/svg" xmlns:xlink="http://www.w3.org/1999/xlink" width="1440" height="810" viewBox="0 0 1440 810">
  <defs>
    <linearGradient id="linear-gradient" x1="1075.37" y1="1020.52" x2="364.63" y2="-210.52" gradientUnits="userSpaceOnUse">
      <stop offset="0"/>
      <stop offset="0.15" stop-color="#020202"/>
      <stop offset="0.24" stop-color="#0b0b0b"/>
      <stop offset="0.31" stop-color="#191919"/>
      <stop offset="0.38" stop-color="#2d2d2d"/>
      <stop offset="0.43" stop-color="#474747"/>
      <stop offset="0.49" stop-color="#676767"/>
      <stop offset="0.54" stop-color="#8c8c8c"/>
      <stop offset="0.58" stop-color="#b3b3b3"/>
      <stop offset="0.63" stop-color="#858585"/>
      <stop offset="0.69" stop-color="#5d5d5d"/>
      <stop offset="0.75" stop-color="#3b3b3b"/>
      <stop offset="0.81" stop-color="#212121"/>
      <stop offset="0.87" stop-color="#0f0f0f"/>
      <stop offset="0.93" stop-color="#040404"/>
      <stop offset="1"/>
    </linearGradient>
    <linearGradient id="linear-gradient-2" x1="-21.21" y1="766.51" x2="1461.21" y2="43.49" gradientUnits="userSpaceOnUse">
      <stop offset="0" stop-color="#b3b3b3"/>
      <stop offset="0.03" stop-color="#989898"/>
      <stop offset="0.09" stop-color="#6f6f6f"/>
      <stop offset="0.15" stop-color="#4d4d4d"/>
      <stop offset="0.22" stop-color="#313131"/>
      <stop offset="0.29" stop-color="#1b1b1b"/>
      <stop offset="0.36" stop-color="#0c0c0c"/>
      <stop offset="0.45" stop-color="#030303"/>
      <stop offset="0.58"/>
      <stop offset="0.63" stop-color="#070707"/>
      <stop offset="0.69" stop-color="#1a1a1a"/>
      <stop offset="0.77" stop-color="#3a3a3a"/>
      <stop offset="0.86" stop-color="#666"/>
      <stop offset="0.95" stop-color="#9e9e9e"/>
      <stop offset="1" stop-color="#bfbfbf"/>
    </linearGradient>
    <mask id="mask" x="-810.09" y="-0.09" width="3050.18" height="810.18" maskUnits="userSpaceOnUse">
      <rect width="1440" height="810" fill="url(#linear-gradient)"/>
    </mask>
  </defs>
  <g mask="url(#mask)">
    <g opacity="0.3">
      <line x1="1430" y1="810" x2="2240" fill="none" stroke="#fff" stroke-miterlimit="10" stroke-width="0.25"/>
      <line x1="1410" y1="810" x2="2220" fill="none" stroke="#fff" stroke-miterlimit="10" stroke-width="0.25"/>
      <line x1="1390" y1="810" x2="2200" fill="none" stroke="#fff" stroke-miterlimit="10" stroke-width="0.25"/>
      <line x1="1370" y1="810" x2="2180" fill="none" stroke="#fff" stroke-miterlimit="10" stroke-width="0.25"/>
      <line x1="1350" y1="810" x2="2160" fill="none" stroke="#fff" stroke-miterlimit="10" stroke-width="0.25"/>
      <line x1="1330" y1="810" x2="2140" fill="none" stroke="#fff" stroke-miterlimit="10" stroke-width="0.25"/>
      <line x1="1310" y1="810" x2="2120" fill="none" stroke="#fff" stroke-miterlimit="10" stroke-width="0.25"/>
      <line x1="1290" y1="810" x2="2100" fill="none" stroke="#fff" stroke-miterlimit="10" stroke-width="0.25"/>
      <line x1="1270" y1="810" x2="2080" fill="none" stroke="#fff" stroke-miterlimit="10" stroke-width="0.25"/>
      <line x1="1250" y1="810" x2="2060" fill="none" stroke="#fff" stroke-miterlimit="10" stroke-width="0.25"/>
      <line x1="1230" y1="810" x2="2040" fill="none" stroke="#fff" stroke-miterlimit="10" stroke-width="0.25"/>
      <line x1="1210" y1="810" x2="2020" fill="none" stroke="#fff" stroke-miterlimit="10" stroke-width="0.25"/>
      <line x1="1190" y1="810" x2="2000" fill="none" stroke="#fff" stroke-miterlimit="10" stroke-width="0.25"/>
      <line x1="1170" y1="810" x2="1980" fill="none" stroke="#fff" stroke-miterlimit="10" stroke-width="0.25"/>
      <line x1="1150" y1="810" x2="1960" fill="none" stroke="#fff" stroke-miterlimit="10" stroke-width="0.25"/>
      <line x1="1130" y1="810" x2="1940" fill="none" stroke="#fff" stroke-miterlimit="10" stroke-width="0.25"/>
      <line x1="1110" y1="810" x2="1920" fill="none" stroke="#fff" stroke-miterlimit="10" stroke-width="0.25"/>
      <line x1="1090" y1="810" x2="1900" fill="none" stroke="#fff" stroke-miterlimit="10" stroke-width="0.25"/>
      <line x1="1070" y1="810" x2="1880" fill="none" stroke="#fff" stroke-miterlimit="10" stroke-width="0.25"/>
      <line x1="1050" y1="810" x2="1860" fill="none" stroke="#fff" stroke-miterlimit="10" stroke-width="0.25"/>
      <line x1="1030" y1="810" x2="1840" fill="none" stroke="#fff" stroke-miterlimit="10" stroke-width="0.25"/>
      <line x1="1010" y1="810" x2="1820" fill="none" stroke="#fff" stroke-miterlimit="10" stroke-width="0.25"/>
      <line x1="990" y1="810" x2="1800" fill="none" stroke="#fff" stroke-miterlimit="10" stroke-width="0.25"/>
      <line x1="970" y1="810" x2="1780" fill="none" stroke="#fff" stroke-miterlimit="10" stroke-width="0.25"/>
      <line x1="950" y1="810" x2="1760" fill="none" stroke="#fff" stroke-miterlimit="10" stroke-width="0.25"/>
      <line x1="930" y1="810" x2="1740" fill="none" stroke="#fff" stroke-miterlimit="10" stroke-width="0.25"/>
      <line x1="910" y1="810" x2="1720" fill="none" stroke="#fff" stroke-miterlimit="10" stroke-width="0.25"/>
      <line x1="890" y1="810" x2="1700" fill="none" stroke="#fff" stroke-miterlimit="10" stroke-width="0.25"/>
      <line x1="870" y1="810" x2="1680" fill="none" stroke="#fff" stroke-miterlimit="10" stroke-width="0.25"/>
      <line x1="850" y1="810" x2="1660" fill="none" stroke="#fff" stroke-miterlimit="10" stroke-width="0.25"/>
      <line x1="830" y1="810" x2="1640" fill="none" stroke="#fff" stroke-miterlimit="10" stroke-width="0.25"/>
      <line x1="810" y1="810" x2="1620" fill="none" stroke="#fff" stroke-miterlimit="10" stroke-width="0.25"/>
      <line x1="790" y1="810" x2="1600" fill="none" stroke="#fff" stroke-miterlimit="10" stroke-width="0.25"/>
      <line x1="770" y1="810" x2="1580" fill="none" stroke="#fff" stroke-miterlimit="10" stroke-width="0.25"/>
      <line x1="750" y1="810" x2="1560" fill="none" stroke="#fff" stroke-miterlimit="10" stroke-width="0.25"/>
      <line x1="730" y1="810" x2="1540" fill="none" stroke="#fff" stroke-miterlimit="10" stroke-width="0.25"/>
      <line x1="710" y1="810" x2="1520" fill="none" stroke="#fff" stroke-miterlimit="10" stroke-width="0.25"/>
      <line x1="690" y1="810" x2="1500" fill="none" stroke="#fff" stroke-miterlimit="10" stroke-width="0.25"/>
      <line x1="670" y1="810" x2="1480" fill="none" stroke="#fff" stroke-miterlimit="10" stroke-width="0.25"/>
      <line x1="650" y1="810" x2="1460" fill="none" stroke="#fff" stroke-miterlimit="10" stroke-width="0.25"/>
      <line x1="630" y1="810" x2="1440" fill="none" stroke="#fff" stroke-miterlimit="10" stroke-width="0.25"/>
      <line x1="610" y1="810" x2="1420" fill="none" stroke="#fff" stroke-miterlimit="10" stroke-width="0.25"/>
      <line x1="590" y1="810" x2="1400" fill="none" stroke="#fff" stroke-miterlimit="10" stroke-width="0.25"/>
      <line x1="570" y1="810" x2="1380" fill="none" stroke="#fff" stroke-miterlimit="10" stroke-width="0.25"/>
      <line x1="550" y1="810" x2="1360" fill="none" stroke="#fff" stroke-miterlimit="10" stroke-width="0.25"/>
      <line x1="530" y1="810" x2="1340" fill="none" stroke="#fff" stroke-miterlimit="10" stroke-width="0.25"/>
      <line x1="510" y1="810" x2="1320" fill="none" stroke="#fff" stroke-miterlimit="10" stroke-width="0.25"/>
      <line x1="490" y1="810" x2="1300" fill="none" stroke="#fff" stroke-miterlimit="10" stroke-width="0.25"/>
      <line x1="470" y1="810" x2="1280" fill="none" stroke="#fff" stroke-miterlimit="10" stroke-width="0.25"/>
      <line x1="450" y1="810" x2="1260" fill="none" stroke="#fff" stroke-miterlimit="10" stroke-width="0.25"/>
      <line x1="430" y1="810" x2="1240" fill="none" stroke="#fff" stroke-miterlimit="10" stroke-width="0.25"/>
      <line x1="410" y1="810" x2="1220" fill="none" stroke="#fff" stroke-miterlimit="10" stroke-width="0.25"/>
      <line x1="390" y1="810" x2="1200" fill="none" stroke="#fff" stroke-miterlimit="10" stroke-width="0.25"/>
      <line x1="370" y1="810" x2="1180" fill="none" stroke="#fff" stroke-miterlimit="10" stroke-width="0.25"/>
      <line x1="350" y1="810" x2="1160" fill="none" stroke="#fff" stroke-miterlimit="10" stroke-width="0.25"/>
      <line x1="330" y1="810" x2="1140" fill="none" stroke="#fff" stroke-miterlimit="10" stroke-width="0.25"/>
      <line x1="310" y1="810" x2="1120" fill="none" stroke="#fff" stroke-miterlimit="10" stroke-width="0.25"/>
      <line x1="290" y1="810" x2="1100" fill="none" stroke="#fff" stroke-miterlimit="10" stroke-width="0.25"/>
      <line x1="270" y1="810" x2="1080" fill="none" stroke="#fff" stroke-miterlimit="10" stroke-width="0.25"/>
      <line x1="250" y1="810" x2="1060" fill="none" stroke="#fff" stroke-miterlimit="10" stroke-width="0.25"/>
      <line x1="230" y1="810" x2="1040" fill="none" stroke="#fff" stroke-miterlimit="10" stroke-width="0.25"/>
      <line x1="210" y1="810" x2="1020" fill="none" stroke="#fff" stroke-miterlimit="10" stroke-width="0.25"/>
      <line x1="190" y1="810" x2="1000" fill="none" stroke="#fff" stroke-miterlimit="10" stroke-width="0.25"/>
      <line x1="170" y1="810" x2="980" fill="none" stroke="#fff" stroke-miterlimit="10" stroke-width="0.25"/>
      <line x1="150" y1="810" x2="960" fill="none" stroke="#fff" stroke-miterlimit="10" stroke-width="0.25"/>
      <line x1="130" y1="810" x2="940" fill="none" stroke="#fff" stroke-miterlimit="10" stroke-width="0.25"/>
      <line x1="110" y1="810" x2="920" fill="none" stroke="#fff" stroke-miterlimit="10" stroke-width="0.25"/>
      <line x1="90" y1="810" x2="900" fill="none" stroke="#fff" stroke-miterlimit="10" stroke-width="0.25"/>
      <line x1="70" y1="810" x2="880" fill="none" stroke="#fff" stroke-miterlimit="10" stroke-width="0.25"/>
      <line x1="50" y1="810" x2="860" fill="none" stroke="#fff" stroke-miterlimit="10" stroke-width="0.25"/>
      <line x1="30" y1="810" x2="840" fill="none" stroke="#fff" stroke-miterlimit="10" stroke-width="0.25"/>
      <line x1="10" y1="810" x2="820" fill="none" stroke="#fff" stroke-miterlimit="10" stroke-width="0.25"/>
      <line x1="-10" y1="810" x2="800" fill="none" stroke="#fff" stroke-miterlimit="10" stroke-width="0.25"/>
      <line x1="-30" y1="810" x2="780" fill="none" stroke="#fff" stroke-miterlimit="10" stroke-width="0.25"/>
      <line x1="-50" y1="810" x2="760" fill="none" stroke="#fff" stroke-miterlimit="10" stroke-width="0.25"/>
      <line x1="-70" y1="810" x2="740" fill="none" stroke="#fff" stroke-miterlimit="10" stroke-width="0.25"/>
      <line x1="-90" y1="810" x2="720" fill="none" stroke="#fff" stroke-miterlimit="10" stroke-width="0.25"/>
      <line x1="-110" y1="810" x2="700" fill="none" stroke="#fff" stroke-miterlimit="10" stroke-width="0.25"/>
      <line x1="-130" y1="810" x2="680" fill="none" stroke="#fff" stroke-miterlimit="10" stroke-width="0.25"/>
      <line x1="-150" y1="810" x2="660" fill="none" stroke="#fff" stroke-miterlimit="10" stroke-width="0.25"/>
      <line x1="-170" y1="810" x2="640" fill="none" stroke="#fff" stroke-miterlimit="10" stroke-width="0.25"/>
      <line x1="-190" y1="810" x2="620" fill="none" stroke="#fff" stroke-miterlimit="10" stroke-width="0.25"/>
      <line x1="-210" y1="810" x2="600" fill="none" stroke="#fff" stroke-miterlimit="10" stroke-width="0.25"/>
      <line x1="-230" y1="810" x2="580" fill="none" stroke="#fff" stroke-miterlimit="10" stroke-width="0.25"/>
      <line x1="-250" y1="810" x2="560" fill="none" stroke="#fff" stroke-miterlimit="10" stroke-width="0.25"/>
      <line x1="-270" y1="810" x2="540" fill="none" stroke="#fff" stroke-miterlimit="10" stroke-width="0.25"/>
      <line x1="-290" y1="810" x2="520" fill="none" stroke="#fff" stroke-miterlimit="10" stroke-width="0.25"/>
      <line x1="-310" y1="810" x2="500" fill="none" stroke="#fff" stroke-miterlimit="10" stroke-width="0.25"/>
      <line x1="-330" y1="810" x2="480" fill="none" stroke="#fff" stroke-miterlimit="10" stroke-width="0.25"/>
      <line x1="-350" y1="810" x2="460" fill="none" stroke="#fff" stroke-miterlimit="10" stroke-width="0.25"/>
      <line x1="-370" y1="810" x2="440" fill="none" stroke="#fff" stroke-miterlimit="10" stroke-width="0.25"/>
      <line x1="-390" y1="810" x2="420" fill="none" stroke="#fff" stroke-miterlimit="10" stroke-width="0.25"/>
      <line x1="-410" y1="810" x2="400" fill="none" stroke="#fff" stroke-miterlimit="10" stroke-width="0.25"/>
      <line x1="-430" y1="810" x2="380" fill="none" stroke="#fff" stroke-miterlimit="10" stroke-width="0.25"/>
      <line x1="-450" y1="810" x2="360" fill="none" stroke="#fff" stroke-miterlimit="10" stroke-width="0.25"/>
      <line x1="-470" y1="810" x2="340" fill="none" stroke="#fff" stroke-miterlimit="10" stroke-width="0.25"/>
      <line x1="-490" y1="810" x2="320" fill="none" stroke="#fff" stroke-miterlimit="10" stroke-width="0.25"/>
      <line x1="-510" y1="810" x2="300" fill="none" stroke="#fff" stroke-miterlimit="10" stroke-width="0.25"/>
      <line x1="-530" y1="810" x2="280" fill="none" stroke="#fff" stroke-miterlimit="10" stroke-width="0.25"/>
      <line x1="-550" y1="810" x2="260" fill="none" stroke="#fff" stroke-miterlimit="10" stroke-width="0.25"/>
      <line x1="-570" y1="810" x2="240" fill="none" stroke="#fff" stroke-miterlimit="10" stroke-width="0.25"/>
      <line x1="-590" y1="810" x2="220" fill="none" stroke="#fff" stroke-miterlimit="10" stroke-width="0.25"/>
      <line x1="-610" y1="810" x2="200" fill="none" stroke="#fff" stroke-miterlimit="10" stroke-width="0.25"/>
      <line x1="-630" y1="810" x2="180" fill="none" stroke="#fff" stroke-miterlimit="10" stroke-width="0.25"/>
      <line x1="-650" y1="810" x2="160" fill="none" stroke="#fff" stroke-miterlimit="10" stroke-width="0.25"/>
      <line x1="-670" y1="810" x2="140" fill="none" stroke="#fff" stroke-miterlimit="10" stroke-width="0.25"/>
      <line x1="-690" y1="810" x2="120" fill="none" stroke="#fff" stroke-miterlimit="10" stroke-width="0.25"/>
      <line x1="-710" y1="810" x2="100" fill="none" stroke="#fff" stroke-miterlimit="10" stroke-width="0.25"/>
      <line x1="-730" y1="810" x2="80" fill="none" stroke="#fff" stroke-miterlimit="10" stroke-width="0.25"/>
      <line x1="-750" y1="810" x2="60" fill="none" stroke="#fff" stroke-miterlimit="10" stroke-width="0.25"/>
      <line x1="-770" y1="810" x2="40" fill="none" stroke="#fff" stroke-miterlimit="10" stroke-width="0.25"/>
      <line x1="-790" y1="810" x2="20" fill="none" stroke="#fff" stroke-miterlimit="10" stroke-width="0.25"/>
      <line x1="-810" y1="810" fill="none" stroke="#fff" stroke-miterlimit="10" stroke-width="0.25"/>
    </g>
  </g>
  <g mask="url(#mask)">
    <g opacity="0.3">
      <line x1="2240" y1="810" x2="1430" fill="none" stroke="#fff" stroke-miterlimit="10" stroke-width="0.25"/>
      <line x1="2220" y1="810" x2="1410" fill="none" stroke="#fff" stroke-miterlimit="10" stroke-width="0.25"/>
      <line x1="2200" y1="810" x2="1390" fill="none" stroke="#fff" stroke-miterlimit="10" stroke-width="0.25"/>
      <line x1="2180" y1="810" x2="1370" fill="none" stroke="#fff" stroke-miterlimit="10" stroke-width="0.25"/>
      <line x1="2160" y1="810" x2="1350" fill="none" stroke="#fff" stroke-miterlimit="10" stroke-width="0.25"/>
      <line x1="2140" y1="810" x2="1330" fill="none" stroke="#fff" stroke-miterlimit="10" stroke-width="0.25"/>
      <line x1="2120" y1="810" x2="1310" fill="none" stroke="#fff" stroke-miterlimit="10" stroke-width="0.25"/>
      <line x1="2100" y1="810" x2="1290" fill="none" stroke="#fff" stroke-miterlimit="10" stroke-width="0.25"/>
      <line x1="2080" y1="810" x2="1270" fill="none" stroke="#fff" stroke-miterlimit="10" stroke-width="0.25"/>
      <line x1="2060" y1="810" x2="1250" fill="none" stroke="#fff" stroke-miterlimit="10" stroke-width="0.25"/>
      <line x1="2040" y1="810" x2="1230" fill="none" stroke="#fff" stroke-miterlimit="10" stroke-width="0.25"/>
      <line x1="2020" y1="810" x2="1210" fill="none" stroke="#fff" stroke-miterlimit="10" stroke-width="0.25"/>
      <line x1="2000" y1="810" x2="1190" fill="none" stroke="#fff" stroke-miterlimit="10" stroke-width="0.25"/>
      <line x1="1980" y1="810" x2="1170" fill="none" stroke="#fff" stroke-miterlimit="10" stroke-width="0.25"/>
      <line x1="1960" y1="810" x2="1150" fill="none" stroke="#fff" stroke-miterlimit="10" stroke-width="0.25"/>
      <line x1="1940" y1="810" x2="1130" fill="none" stroke="#fff" stroke-miterlimit="10" stroke-width="0.25"/>
      <line x1="1920" y1="810" x2="1110" fill="none" stroke="#fff" stroke-miterlimit="10" stroke-width="0.25"/>
      <line x1="1900" y1="810" x2="1090" fill="none" stroke="#fff" stroke-miterlimit="10" stroke-width="0.25"/>
      <line x1="1880" y1="810" x2="1070" fill="none" stroke="#fff" stroke-miterlimit="10" stroke-width="0.25"/>
      <line x1="1860" y1="810" x2="1050" fill="none" stroke="#fff" stroke-miterlimit="10" stroke-width="0.25"/>
      <line x1="1840" y1="810" x2="1030" fill="none" stroke="#fff" stroke-miterlimit="10" stroke-width="0.25"/>
      <line x1="1820" y1="810" x2="1010" fill="none" stroke="#fff" stroke-miterlimit="10" stroke-width="0.25"/>
      <line x1="1800" y1="810" x2="990" fill="none" stroke="#fff" stroke-miterlimit="10" stroke-width="0.25"/>
      <line x1="1780" y1="810" x2="970" fill="none" stroke="#fff" stroke-miterlimit="10" stroke-width="0.25"/>
      <line x1="1760" y1="810" x2="950" fill="none" stroke="#fff" stroke-miterlimit="10" stroke-width="0.25"/>
      <line x1="1740" y1="810" x2="930" fill="none" stroke="#fff" stroke-miterlimit="10" stroke-width="0.25"/>
      <line x1="1720" y1="810" x2="910" fill="none" stroke="#fff" stroke-miterlimit="10" stroke-width="0.25"/>
      <line x1="1700" y1="810" x2="890" fill="none" stroke="#fff" stroke-miterlimit="10" stroke-width="0.25"/>
      <line x1="1680" y1="810" x2="870" fill="none" stroke="#fff" stroke-miterlimit="10" stroke-width="0.25"/>
      <line x1="1660" y1="810" x2="850" fill="none" stroke="#fff" stroke-miterlimit="10" stroke-width="0.25"/>
      <line x1="1640" y1="810" x2="830" fill="none" stroke="#fff" stroke-miterlimit="10" stroke-width="0.25"/>
      <line x1="1620" y1="810" x2="810" fill="none" stroke="#fff" stroke-miterlimit="10" stroke-width="0.25"/>
      <line x1="1600" y1="810" x2="790" fill="none" stroke="#fff" stroke-miterlimit="10" stroke-width="0.25"/>
      <line x1="1580" y1="810" x2="770" fill="none" stroke="#fff" stroke-miterlimit="10" stroke-width="0.25"/>
      <line x1="1560" y1="810" x2="750" fill="none" stroke="#fff" stroke-miterlimit="10" stroke-width="0.25"/>
      <line x1="1540" y1="810" x2="730" fill="none" stroke="#fff" stroke-miterlimit="10" stroke-width="0.25"/>
      <line x1="1520" y1="810" x2="710" fill="none" stroke="#fff" stroke-miterlimit="10" stroke-width="0.25"/>
      <line x1="1500" y1="810" x2="690" fill="none" stroke="#fff" stroke-miterlimit="10" stroke-width="0.25"/>
      <line x1="1480" y1="810" x2="670" fill="none" stroke="#fff" stroke-miterlimit="10" stroke-width="0.25"/>
      <line x1="1460" y1="810" x2="650" fill="none" stroke="#fff" stroke-miterlimit="10" stroke-width="0.25"/>
      <line x1="1440" y1="810" x2="630" fill="none" stroke="#fff" stroke-miterlimit="10" stroke-width="0.25"/>
      <line x1="1420" y1="810" x2="610" fill="none" stroke="#fff" stroke-miterlimit="10" stroke-width="0.25"/>
      <line x1="1400" y1="810" x2="590" fill="none" stroke="#fff" stroke-miterlimit="10" stroke-width="0.25"/>
      <line x1="1380" y1="810" x2="570" fill="none" stroke="#fff" stroke-miterlimit="10" stroke-width="0.25"/>
      <line x1="1360" y1="810" x2="550" fill="none" stroke="#fff" stroke-miterlimit="10" stroke-width="0.25"/>
      <line x1="1340" y1="810" x2="530" fill="none" stroke="#fff" stroke-miterlimit="10" stroke-width="0.25"/>
      <line x1="1320" y1="810" x2="510" fill="none" stroke="#fff" stroke-miterlimit="10" stroke-width="0.25"/>
      <line x1="1300" y1="810" x2="490" fill="none" stroke="#fff" stroke-miterlimit="10" stroke-width="0.25"/>
      <line x1="1280" y1="810" x2="470" fill="none" stroke="#fff" stroke-miterlimit="10" stroke-width="0.25"/>
      <line x1="1260" y1="810" x2="450" fill="none" stroke="#fff" stroke-miterlimit="10" stroke-width="0.25"/>
      <line x1="1240" y1="810" x2="430" fill="none" stroke="#fff" stroke-miterlimit="10" stroke-width="0.25"/>
      <line x1="1220" y1="810" x2="410" fill="none" stroke="#fff" stroke-miterlimit="10" stroke-width="0.25"/>
      <line x1="1200" y1="810" x2="390" fill="none" stroke="#fff" stroke-miterlimit="10" stroke-width="0.25"/>
      <line x1="1180" y1="810" x2="370" fill="none" stroke="#fff" stroke-miterlimit="10" stroke-width="0.25"/>
      <line x1="1160" y1="810" x2="350" fill="none" stroke="#fff" stroke-miterlimit="10" stroke-width="0.25"/>
      <line x1="1140" y1="810" x2="330" fill="none" stroke="#fff" stroke-miterlimit="10" stroke-width="0.25"/>
      <line x1="1120" y1="810" x2="310" fill="none" stroke="#fff" stroke-miterlimit="10" stroke-width="0.25"/>
      <line x1="1100" y1="810" x2="290" fill="none" stroke="#fff" stroke-miterlimit="10" stroke-width="0.25"/>
      <line x1="1080" y1="810" x2="270" fill="none" stroke="#fff" stroke-miterlimit="10" stroke-width="0.25"/>
      <line x1="1060" y1="810" x2="250" fill="none" stroke="#fff" stroke-miterlimit="10" stroke-width="0.25"/>
      <line x1="1040" y1="810" x2="230" fill="none" stroke="#fff" stroke-miterlimit="10" stroke-width="0.25"/>
      <line x1="1020" y1="810" x2="210" fill="none" stroke="#fff" stroke-miterlimit="10" stroke-width="0.25"/>
      <line x1="1000" y1="810" x2="190" fill="none" stroke="#fff" stroke-miterlimit="10" stroke-width="0.25"/>
      <line x1="980" y1="810" x2="170" fill="none" stroke="#fff" stroke-miterlimit="10" stroke-width="0.25"/>
      <line x1="960" y1="810" x2="150" fill="none" stroke="#fff" stroke-miterlimit="10" stroke-width="0.25"/>
      <line x1="940" y1="810" x2="130" fill="none" stroke="#fff" stroke-miterlimit="10" stroke-width="0.25"/>
      <line x1="920" y1="810" x2="110" fill="none" stroke="#fff" stroke-miterlimit="10" stroke-width="0.25"/>
      <line x1="900" y1="810" x2="90" fill="none" stroke="#fff" stroke-miterlimit="10" stroke-width="0.25"/>
      <line x1="880" y1="810" x2="70" fill="none" stroke="#fff" stroke-miterlimit="10" stroke-width="0.25"/>
      <line x1="860" y1="810" x2="50" fill="none" stroke="#fff" stroke-miterlimit="10" stroke-width="0.25"/>
      <line x1="840" y1="810" x2="30" fill="none" stroke="#fff" stroke-miterlimit="10" stroke-width="0.25"/>
      <line x1="820" y1="810" x2="10" fill="none" stroke="#fff" stroke-miterlimit="10" stroke-width="0.25"/>
      <line x1="800" y1="810" x2="-10" fill="none" stroke="#fff" stroke-miterlimit="10" stroke-width="0.25"/>
      <line x1="780" y1="810" x2="-30" fill="none" stroke="#fff" stroke-miterlimit="10" stroke-width="0.25"/>
      <line x1="760" y1="810" x2="-50" fill="none" stroke="#fff" stroke-miterlimit="10" stroke-width="0.25"/>
      <line x1="740" y1="810" x2="-70" fill="none" stroke="#fff" stroke-miterlimit="10" stroke-width="0.25"/>
      <line x1="720" y1="810" x2="-90" fill="none" stroke="#fff" stroke-miterlimit="10" stroke-width="0.25"/>
      <line x1="700" y1="810" x2="-110" fill="none" stroke="#fff" stroke-miterlimit="10" stroke-width="0.25"/>
      <line x1="680" y1="810" x2="-130" fill="none" stroke="#fff" stroke-miterlimit="10" stroke-width="0.25"/>
      <line x1="660" y1="810" x2="-150" fill="none" stroke="#fff" stroke-miterlimit="10" stroke-width="0.25"/>
      <line x1="640" y1="810" x2="-170" fill="none" stroke="#fff" stroke-miterlimit="10" stroke-width="0.25"/>
      <line x1="620" y1="810" x2="-190" fill="none" stroke="#fff" stroke-miterlimit="10" stroke-width="0.25"/>
      <line x1="600" y1="810" x2="-210" fill="none" stroke="#fff" stroke-miterlimit="10" stroke-width="0.25"/>
      <line x1="580" y1="810" x2="-230" fill="none" stroke="#fff" stroke-miterlimit="10" stroke-width="0.25"/>
      <line x1="560" y1="810" x2="-250" fill="none" stroke="#fff" stroke-miterlimit="10" stroke-width="0.25"/>
      <line x1="540" y1="810" x2="-270" fill="none" stroke="#fff" stroke-miterlimit="10" stroke-width="0.25"/>
      <line x1="520" y1="810" x2="-290" fill="none" stroke="#fff" stroke-miterlimit="10" stroke-width="0.25"/>
      <line x1="500" y1="810" x2="-310" fill="none" stroke="#fff" stroke-miterlimit="10" stroke-width="0.25"/>
      <line x1="480" y1="810" x2="-330" fill="none" stroke="#fff" stroke-miterlimit="10" stroke-width="0.25"/>
      <line x1="460" y1="810" x2="-350" fill="none" stroke="#fff" stroke-miterlimit="10" stroke-width="0.25"/>
      <line x1="440" y1="810" x2="-370" fill="none" stroke="#fff" stroke-miterlimit="10" stroke-width="0.25"/>
      <line x1="420" y1="810" x2="-390" fill="none" stroke="#fff" stroke-miterlimit="10" stroke-width="0.25"/>
      <line x1="400" y1="810" x2="-410" fill="none" stroke="#fff" stroke-miterlimit="10" stroke-width="0.25"/>
      <line x1="380" y1="810" x2="-430" fill="none" stroke="#fff" stroke-miterlimit="10" stroke-width="0.25"/>
      <line x1="360" y1="810" x2="-450" fill="none" stroke="#fff" stroke-miterlimit="10" stroke-width="0.25"/>
      <line x1="340" y1="810" x2="-470" fill="none" stroke="#fff" stroke-miterlimit="10" stroke-width="0.25"/>
      <line x1="320" y1="810" x2="-490" fill="none" stroke="#fff" stroke-miterlimit="10" stroke-width="0.25"/>
      <line x1="300" y1="810" x2="-510" fill="none" stroke="#fff" stroke-miterlimit="10" stroke-width="0.25"/>
      <line x1="280" y1="810" x2="-530" fill="none" stroke="#fff" stroke-miterlimit="10" stroke-width="0.25"/>
      <line x1="260" y1="810" x2="-550" fill="none" stroke="#fff" stroke-miterlimit="10" stroke-width="0.25"/>
      <line x1="240" y1="810" x2="-570" fill="none" stroke="#fff" stroke-miterlimit="10" stroke-width="0.25"/>
      <line x1="220" y1="810" x2="-590" fill="none" stroke="#fff" stroke-miterlimit="10" stroke-width="0.25"/>
      <line x1="200" y1="810" x2="-610" fill="none" stroke="#fff" stroke-miterlimit="10" stroke-width="0.25"/>
      <line x1="180" y1="810" x2="-630" fill="none" stroke="#fff" stroke-miterlimit="10" stroke-width="0.25"/>
      <line x1="160" y1="810" x2="-650" fill="none" stroke="#fff" stroke-miterlimit="10" stroke-width="0.25"/>
      <line x1="140" y1="810" x2="-670" fill="none" stroke="#fff" stroke-miterlimit="10" stroke-width="0.25"/>
      <line x1="120" y1="810" x2="-690" fill="none" stroke="#fff" stroke-miterlimit="10" stroke-width="0.25"/>
      <line x1="100" y1="810" x2="-710" fill="none" stroke="#fff" stroke-miterlimit="10" stroke-width="0.25"/>
      <line x1="80" y1="810" x2="-730" fill="none" stroke="#fff" stroke-miterlimit="10" stroke-width="0.25"/>
      <line x1="60" y1="810" x2="-750" fill="none" stroke="#fff" stroke-miterlimit="10" stroke-width="0.25"/>
      <line x1="40" y1="810" x2="-770" fill="none" stroke="#fff" stroke-miterlimit="10" stroke-width="0.25"/>
      <line x1="20" y1="810" x2="-790" fill="none" stroke="#fff" stroke-miterlimit="10" stroke-width="0.25"/>
      <line y1="810" x2="-810" fill="none" stroke="#fff" stroke-miterlimit="10" stroke-width="0.25"/>
    </g>
  </g>
</svg>
